<svg width="44" height="44" viewBox="0 0 44 44" fill="none" xmlns="http://www.w3.org/2000/svg">
<path d="M22 34L21.1343 33.3497C19.9947 32.4933 10.0043 24.7781 10.0043 17.7301C9.93962 15.7553 10.6131 13.8337 11.8775 12.3852C13.1419 10.9367 14.8944 10.0791 16.7519 10C17.7772 10.0107 18.7859 10.2764 19.6972 10.7759C20.6085 11.2754 21.3972 11.9947 22 12.8763C22.6028 11.9947 23.3915 11.2754 24.3028 10.7759C25.2141 10.2764 26.2228 10.0107 27.2481 10C29.1056 10.0791 30.8581 10.9367 32.1225 12.3852C33.3869 13.8337 34.0604 15.7553 33.9957 17.7301C33.9957 24.7781 24.0053 32.4933 22.8657 33.3497L22 34ZM16.7519 13.1877C15.6902 13.2676 14.7011 13.7895 13.9992 14.64C13.2974 15.4904 12.9395 16.6008 13.0032 17.7301C13.0032 21.8911 18.8641 27.5163 22 30.0675C25.1359 27.5173 30.9968 21.8911 30.9968 17.7301C31.0605 16.6008 30.7026 15.4904 30.0008 14.64C29.2989 13.7895 28.3098 13.2676 27.2481 13.1877C26.1865 13.2676 25.1973 13.7895 24.4955 14.64C23.7936 15.4904 23.4357 16.6008 23.4995 17.7301H20.5005C20.5643 16.6008 20.2064 15.4904 19.5045 14.64C18.8027 13.7895 17.8135 13.2676 16.7519 13.1877Z" fill="#00643C"/>
</svg>
