<svg width="36" height="44" viewBox="0 0 36 44" fill="none" xmlns="http://www.w3.org/2000/svg">
<path d="M18.0005 22C21.3142 22 24.0005 19.3137 24.0005 16C24.0005 12.6863 21.3142 10 18.0005 10C14.6868 10 12.0005 12.6863 12.0005 16C12.0038 19.3123 14.6882 21.9967 18.0005 22ZM18.0005 13C19.6573 13 21.0005 14.3432 21.0005 16C21.0005 17.6568 19.6573 19 18.0005 19C16.3436 19 15.0005 17.6568 15.0005 16C15.0005 14.3432 16.3436 13 18.0005 13Z" fill="#00643C"/>
<path d="M17.4527 24.0182C13.191 24.4034 9.94415 28.0045 10.0007 32.2832V32.5002C10.0007 33.3286 10.6723 34.0002 11.5007 34.0002C12.3291 34.0002 13.0007 33.3286 13.0007 32.5002V32.2232C12.9556 29.5961 14.8944 27.3558 17.5007 27.0232C20.252 26.7504 22.7035 28.7596 22.9763 31.5108C22.9924 31.6735 23.0006 31.8368 23.0007 32.0002V32.5002C23.0007 33.3286 23.6723 34.0002 24.5007 34.0002C25.3291 34.0002 26.0007 33.3286 26.0007 32.5002V32.0002C25.9958 27.5769 22.4061 23.9951 17.9829 24C17.806 24.0002 17.6292 24.0063 17.4527 24.0182Z" fill="#00643C"/>
</svg>
